<?xml version="1.0" standalone="no"?>
<!DOCTYPE svg PUBLIC "-//W3C//DTD SVG 20010904//EN"
"http://www.w3.org/TR/2001/REC-SVG-20010904/DTD/svg10.dtd">
<svg version="1.0" xmlns="http://www.w3.org/2000/svg"
width="255.000000pt" height="164.000000pt" viewBox="0 0 255.000000 164.000000"
preserveAspectRatio="xMidYMid meet">

<g transform="translate(0.000000,164.000000) scale(0.100000,-0.100000)"
fill="#fff" stroke="none">
<path d="M1457 1546 c-55 -60 -85 -86 -101 -86 -17 0 -35 -17 -70 -70 -39 -60
-50 -70 -75 -70 -24 0 -37 -10 -66 -51 l-38 -50 -21 20 c-12 12 -31 21 -42 21
-43 0 -63 12 -66 38 -2 19 -19 37 -57 64 -30 21 -58 38 -62 38 -4 0 -82 -86
-173 -192 -115 -132 -163 -194 -154 -199 17 -11 26 -2 125 118 l85 104 24 -22
c29 -27 30 -39 4 -39 -35 0 -26 -48 17 -84 l36 -32 -33 -86 c-18 -48 -40 -94
-50 -103 -42 -38 -368 -141 -386 -122 -4 3 28 46 70 96 42 49 76 94 76 100 0
6 -8 11 -18 11 -12 0 -53 -42 -108 -110 -49 -60 -98 -111 -109 -114 -11 -2
-47 -10 -80 -16 -32 -7 -70 -17 -82 -23 -45 -20 -41 -77 7 -97 17 -7 30 -17
30 -22 0 -6 -32 -49 -71 -95 -54 -65 -68 -87 -58 -93 17 -11 28 -2 111 98 62
74 72 81 96 76 229 -55 392 -116 464 -174 42 -34 68 -38 75 -12 6 23 87 44
109 27 13 -9 8 -16 -29 -42 -117 -84 -237 -237 -237 -300 0 -13 11 -30 24 -38
23 -15 27 -15 63 3 52 27 151 133 261 279 97 129 107 139 117 123 10 -17 44
-12 105 16 70 31 94 68 61 95 -16 13 -29 15 -56 9 -20 -4 -38 -4 -41 1 -11 18
-41 8 -63 -22 -21 -28 -129 -89 -158 -89 -21 0 -15 30 12 62 32 38 28 52 -14
56 -51 5 -156 -67 -173 -119 -3 -8 -25 0 -64 24 -33 21 -85 47 -115 58 -63 25
-231 75 -283 85 -20 3 -36 11 -36 18 1 6 16 28 34 49 32 36 40 39 153 62 241
49 385 113 465 205 23 27 45 47 49 45 3 -3 3 -24 -2 -47 -4 -24 -8 -58 -9 -77
l0 -33 53 48 c49 44 185 133 230 150 25 9 21 -12 -9 -51 -26 -34 -54 -111 -54
-147 0 -17 6 -14 40 15 46 39 149 97 173 97 13 0 14 -6 6 -32 -11 -39 -12 -88
-1 -88 4 0 29 27 56 60 45 54 118 123 155 145 11 6 12 0 7 -39 -4 -25 -5 -46
-1 -46 3 0 38 16 77 36 l72 36 -27 24 c-15 12 -35 28 -44 33 -16 9 -15 13 12
35 17 14 51 35 77 48 29 14 47 30 48 40 0 25 46 52 89 52 22 1 51 11 76 28
l39 28 26 -43 c15 -23 39 -63 54 -89 27 -47 27 -48 7 -48 -30 0 -26 -13 9 -33
37 -22 37 -32 4 -54 l-26 -17 28 -23 c36 -29 38 -29 80 3 19 15 34 22 35 18 0
-5 0 -54 -1 -109 l-1 -100 83 83 c46 45 88 82 94 82 6 0 21 -34 34 -75 13 -41
27 -75 30 -75 4 0 20 18 34 41 l27 41 -62 94 c-34 52 -66 94 -70 94 -5 0 -18
-5 -29 -12 -16 -11 -27 -7 -76 27 -41 28 -61 50 -69 74 -9 29 -20 38 -65 55
-47 17 -103 64 -132 109 -4 7 -23 0 -52 -21 -25 -18 -50 -31 -55 -28 -5 4 -22
26 -38 51 -24 39 -33 45 -62 45 -31 0 -47 13 -155 126 l-121 126 -78 -86z
m-77 -208 c13 -37 22 -69 19 -71 -2 -2 -43 -32 -91 -66 -84 -60 -88 -65 -88
-101 0 -37 -1 -38 -72 -68 -40 -16 -76 -28 -80 -25 -5 2 -8 13 -8 24 0 10 -3
19 -7 19 -5 0 -19 9 -32 19 l-24 19 38 46 c24 30 45 46 60 46 16 0 35 17 64
55 30 40 48 55 66 55 18 0 35 16 71 66 26 36 50 62 54 57 4 -4 18 -38 30 -75z
m-1140 -655 c0 -5 -12 -21 -26 -36 -21 -24 -28 -27 -52 -19 -45 14 -40 39 10
50 56 13 68 14 68 5z m650 -188 c0 -27 -48 -65 -82 -65 -33 0 -19 28 32 65 42
31 50 31 50 0z m300 2 c0 -33 -58 -61 -85 -41 -22 16 -16 24 28 41 43 16 57
16 57 0z m-244 -151 c-112 -163 -262 -314 -286 -290 -14 14 4 69 36 116 52 75
265 251 282 233 3 -3 -11 -29 -32 -59z"/>
<path d="M1935 558 c39 -11 169 -12 188 -1 9 5 -32 8 -101 9 -81 1 -108 -2
-87 -8z"/>
<path d="M1655 534 c-16 -9 -46 -31 -65 -50 -38 -36 -86 -58 -108 -49 -11 4
-10 11 7 39 40 63 22 73 -49 26 -55 -36 -62 -37 -54 -5 8 33 -4 32 -69 -5 -30
-16 -61 -30 -70 -30 -9 0 -17 -7 -17 -16 0 -12 7 -14 32 -9 25 6 30 5 25 -8
-3 -9 0 -20 7 -26 9 -8 28 -1 71 24 31 19 59 35 61 35 3 0 2 -11 -2 -24 -8
-34 21 -49 71 -35 29 8 44 8 62 -2 18 -10 34 -10 63 -3 22 6 45 7 54 2 10 -5
36 -1 73 13 93 34 97 34 90 16 -12 -32 17 -37 62 -11 52 29 57 30 64 4 7 -26
43 -26 82 0 35 24 45 25 45 6 0 -30 25 -36 80 -20 37 11 56 12 63 5 16 -16 43
-13 87 9 47 24 50 24 50 5 0 -22 34 -36 66 -26 55 16 114 43 114 52 0 13 -23
11 -63 -6 -62 -26 -70 -22 -63 30 4 25 4 45 1 45 -4 0 -32 -18 -62 -40 -31
-22 -62 -40 -70 -40 -18 0 -17 25 2 40 16 13 21 40 7 40 -5 0 -21 -13 -37 -30
-29 -31 -110 -68 -122 -56 -4 3 1 22 10 41 9 20 17 40 17 45 0 19 -27 10 -66
-21 -22 -17 -47 -35 -57 -41 -17 -9 -17 -8 -2 22 26 51 6 59 -53 21 -59 -38
-64 -38 -56 -6 3 14 2 25 -4 25 -5 0 -45 -18 -88 -39 -101 -50 -134 -59 -134
-36 0 9 11 31 25 47 14 17 24 36 22 42 -6 17 -69 17 -102 0z m42 -29 c-4 -8
-2 -17 4 -21 6 -3 -6 -14 -25 -25 -62 -33 -87 -20 -43 22 18 17 49 35 66 38 2
1 1 -6 -2 -14z"/>
</g>
</svg>
