<?xml version="1.0" standalone="no"?>
<!DOCTYPE svg PUBLIC "-//W3C//DTD SVG 20010904//EN"
 "http://www.w3.org/TR/2001/REC-SVG-20010904/DTD/svg10.dtd">
<svg version="1.0" xmlns="http://www.w3.org/2000/svg"
 width="255.000000pt" height="255.000000pt" viewBox="0 0 255.000000 255.000000"
 preserveAspectRatio="xMidYMid meet">
<metadata>
Created by potrace 1.14, written by Peter Selinger 2001-2017
</metadata>
<g transform="translate(0.000000,255.000000) scale(0.100000,-0.100000)"
fill="#000000" stroke="none">
<path d="M1454 2005 c-55 -59 -85 -85 -101 -85 -17 0 -34 -17 -69 -69 -39 -59
-51 -70 -77 -73 -23 -2 -39 -14 -62 -45 -32 -45 -46 -51 -65 -28 -6 7 -32 17
-56 21 -40 6 -44 9 -44 34 0 22 -11 34 -56 64 -30 21 -61 36 -68 34 -13 -3
-330 -364 -337 -383 -2 -5 5 -11 16 -13 16 -2 43 24 110 108 50 60 95 110 101
110 6 0 19 -9 29 -20 16 -18 17 -20 1 -20 -9 0 -21 -12 -27 -27 -9 -23 -6 -31
28 -65 l38 -39 -30 -85 c-27 -78 -34 -88 -71 -110 -22 -13 -67 -33 -100 -45
-76 -26 -254 -69 -254 -60 0 3 34 47 75 97 64 78 72 94 60 104 -20 16 -27 10
-132 -117 -47 -57 -87 -103 -89 -103 -1 0 -36 -7 -78 -14 -86 -17 -111 -28
-126 -57 -15 -26 10 -66 45 -75 14 -3 25 -10 25 -14 0 -9 -117 -152 -133 -161
-14 -9 -1 -39 16 -39 8 0 48 40 88 90 43 52 82 90 92 90 10 0 83 -18 162 -40
149 -41 236 -78 318 -136 47 -34 47 -34 66 -15 26 26 98 48 112 34 7 -7 -8
-25 -49 -57 -116 -89 -212 -215 -212 -279 0 -36 27 -60 59 -52 66 16 133 83
296 295 48 63 90 117 92 120 2 2 12 -1 23 -7 33 -21 146 27 171 74 21 40 2 58
-60 56 -28 -1 -51 2 -51 7 0 21 -30 8 -57 -24 -30 -36 -119 -86 -152 -86 -24
0 -19 23 12 57 21 24 17 50 -8 59 -40 16 -185 -80 -185 -121 0 -20 -2 -20 -55
16 -66 44 -193 94 -320 125 -61 15 -113 30 -117 33 -4 4 9 25 30 49 36 41 41
43 142 62 251 48 375 102 468 204 24 26 45 46 47 44 2 -2 -1 -37 -6 -77 -6
-40 -8 -75 -6 -77 2 -3 28 18 58 45 55 51 212 151 237 151 10 0 9 -7 -6 -27
-37 -53 -62 -112 -62 -148 0 -19 3 -35 6 -35 4 0 24 16 45 35 31 28 146 95
163 95 2 0 1 -29 -2 -65 -5 -74 5 -83 38 -31 27 44 183 192 188 178 2 -6 -1
-28 -7 -48 -6 -21 -9 -39 -8 -40 5 -4 167 72 167 78 0 4 -18 20 -40 34 -22 15
-40 30 -40 35 0 9 69 58 117 83 22 11 30 21 27 31 -8 20 81 61 99 47 9 -7 24
-2 51 19 22 16 43 29 47 29 7 0 99 -151 99 -163 0 -4 -10 -7 -22 -7 l-23 -1
24 -20 c13 -11 31 -24 40 -29 13 -7 12 -12 -12 -30 -15 -12 -27 -24 -27 -28 0
-4 15 -17 34 -29 l33 -21 29 24 c16 13 32 23 37 24 4 0 7 -45 7 -100 0 -55 3
-100 8 -100 4 0 43 36 87 80 44 44 82 80 85 80 3 0 16 -36 29 -80 13 -44 27
-80 30 -80 9 1 61 78 61 91 0 7 -106 173 -126 198 -2 2 -15 -4 -29 -13 -25
-16 -27 -16 -80 21 -41 28 -58 48 -66 75 -11 34 -18 40 -66 55 -42 13 -63 28
-95 65 -22 26 -46 48 -52 48 -6 0 -29 -14 -50 -30 l-40 -30 -35 50 c-29 43
-39 50 -67 50 -29 0 -47 15 -151 125 -65 69 -121 125 -125 125 -4 0 -42 -38
-84 -85z m-78 -205 c13 -36 20 -68 16 -71 -4 -4 -43 -33 -87 -65 -93 -67 -95
-69 -95 -110 0 -30 -4 -34 -67 -59 -52 -20 -68 -24 -72 -14 -2 8 -17 25 -33
39 -15 13 -28 29 -28 35 1 20 71 85 93 85 15 0 34 17 61 55 31 44 45 55 67 55
22 0 34 11 65 60 22 33 43 59 48 57 5 -2 19 -32 32 -67z m-1146 -659 c0 -6
-10 -21 -22 -35 -20 -23 -26 -25 -47 -13 -34 17 -28 30 21 44 24 6 44 11 46
12 1 1 2 -3 2 -8z m657 -190 c1 -14 -11 -26 -40 -40 -53 -26 -63 -9 -18 31 37
33 56 36 58 9z m303 0 c0 -14 -49 -43 -67 -39 -28 5 -25 26 4 36 36 13 63 15
63 3z m-224 -107 c-12 -32 -157 -212 -215 -267 -62 -60 -91 -71 -91 -37 0 62
125 201 259 291 51 33 55 35 47 13z"/>
<path d="M1914 1028 c-9 -14 23 -20 114 -22 88 -1 128 7 118 23 -4 5 -22 5
-45 -1 -25 -6 -65 -7 -111 -1 -39 5 -73 6 -76 1z"/>
<path d="M1654 995 c-28 -14 -63 -38 -77 -54 -24 -27 -81 -50 -94 -37 -3 3 4
20 16 39 17 28 19 37 8 45 -10 9 -26 3 -66 -23 -61 -40 -65 -42 -52 -17 5 10
6 23 2 30 -5 9 -28 2 -83 -25 -75 -37 -104 -70 -54 -61 20 4 26 0 28 -16 5
-31 31 -30 85 3 l48 30 5 -27 c6 -32 33 -39 85 -22 29 10 38 9 51 -5 12 -12
24 -14 43 -9 14 4 51 8 81 9 31 1 76 11 103 23 47 21 47 21 47 1 0 -31 26 -33
76 -5 26 14 48 26 50 26 1 0 4 -10 6 -22 2 -19 9 -23 33 -21 16 1 42 11 57 23
34 25 36 25 40 -2 4 -30 37 -35 89 -14 35 14 42 14 62 2 20 -13 27 -13 66 5
44 19 44 19 63 -1 10 -11 27 -20 38 -20 32 0 131 41 137 56 9 23 -1 25 -47 9
-23 -8 -51 -15 -62 -15 -19 0 -19 8 -1 57 10 27 -28 24 -64 -5 -75 -58 -114
-67 -74 -16 36 46 2 62 -40 18 -29 -31 -71 -54 -99 -54 -25 0 -25 7 0 45 14
22 16 32 8 42 -12 15 -41 1 -91 -46 l-29 -26 7 38 c9 47 -9 49 -70 7 -51 -35
-59 -37 -46 -12 7 13 7 22 0 29 -8 8 -37 -3 -97 -33 -120 -61 -168 -57 -105 8
22 23 25 32 17 46 -17 26 -44 25 -100 -3z m39 -44 c4 -15 -4 -24 -30 -36 -51
-24 -63 -13 -24 23 39 37 47 39 54 13z"/>
</g>
</svg>
